<svg width="50" height="50" viewBox="0 0 50 50" fill="none" xmlns="http://www.w3.org/2000/svg">
<path d="M15.7188 27.9375C16.1998 28.0546 16.6925 28.1174 17.1875 28.125C18.4287 28.1247 19.6417 27.7548 20.6719 27.0625L25.7031 31.5469C25.3046 32.3037 25.0707 33.1363 25.0168 33.99C24.9629 34.8437 25.0903 35.6991 25.3906 36.5C25.706 37.4075 26.2264 38.2301 26.9113 38.9038C27.5962 39.5775 28.4273 40.0843 29.3398 40.3847C30.2524 40.6851 31.2219 40.7711 32.1731 40.636C33.1243 40.5009 34.0315 40.1484 34.8244 39.6057C35.6172 39.0631 36.2742 38.345 36.7444 37.5072C37.2147 36.6694 37.4854 35.7344 37.5357 34.775C37.5859 33.8156 37.4143 32.8575 37.0341 31.9751C36.654 31.0928 36.0756 30.31 35.3438 29.6875L39.3125 16.7344C40.0871 16.9091 40.8891 16.9258 41.6703 16.7835C42.4515 16.6412 43.1961 16.3429 43.8594 15.9062C44.9858 15.2188 45.8657 14.1925 46.3731 12.9743C46.8805 11.7561 46.9892 10.4086 46.6838 9.12482C46.3784 7.84103 45.6745 6.68685 44.673 5.82764C43.6714 4.96842 42.4236 4.44827 41.1083 4.3417C39.793 4.23513 38.4777 4.54761 37.3508 5.23437C36.224 5.92114 35.3435 6.94694 34.8354 8.16482C34.3273 9.3827 34.2177 10.7301 34.5223 12.0141C34.827 13.2981 35.5302 14.4527 36.5312 15.3125L32.5625 28.2656C32.1315 28.1709 31.6913 28.1237 31.25 28.125C30.0088 28.1253 28.7958 28.4952 27.7656 29.1875L22.7344 24.7031C23.1329 23.9463 23.3668 23.1137 23.4207 22.26C23.4746 21.4063 23.3472 20.5509 23.0469 19.75C22.7338 18.8491 22.2187 18.0318 21.541 17.3607C20.8633 16.6896 20.041 16.1825 19.1371 15.8782C18.2332 15.5739 17.2717 15.4806 16.3261 15.6053C15.3805 15.73 14.476 16.0694 13.6819 16.5976C12.8878 17.1258 12.2251 17.8287 11.7445 18.6526C11.264 19.4764 10.9783 20.3993 10.9095 21.3505C10.8407 22.3018 10.9905 23.2562 11.3474 24.1406C11.7043 25.0251 12.2589 25.8161 12.9688 26.4531L6.25 39.0625V3.125H3.125V43.75C3.125 44.5788 3.45424 45.3737 4.04029 45.9597C4.62634 46.5458 5.4212 46.875 6.25 46.875H46.875V43.75H7.29688L15.7188 27.9375ZM40.625 7.5C41.2431 7.5 41.8473 7.68328 42.3612 8.02666C42.8751 8.37004 43.2756 8.8581 43.5121 9.42911C43.7486 10.0001 43.8105 10.6285 43.69 11.2347C43.5694 11.8408 43.2717 12.3977 42.8347 12.8347C42.3977 13.2717 41.8408 13.5694 41.2347 13.69C40.6285 13.8105 40.0001 13.7486 39.4291 13.5121C38.8581 13.2756 38.37 12.8751 38.0267 12.3612C37.6833 11.8473 37.5 11.2431 37.5 10.625C37.5 9.7962 37.8292 9.00134 38.4153 8.41529C39.0013 7.82924 39.7962 7.5 40.625 7.5ZM34.375 34.375C34.375 34.9931 34.1917 35.5973 33.8483 36.1112C33.505 36.6251 33.0169 37.0256 32.4459 37.2621C31.8749 37.4986 31.2465 37.5605 30.6403 37.44C30.0342 37.3194 29.4773 37.0217 29.0403 36.5847C28.6033 36.1477 28.3056 35.5908 28.185 34.9847C28.0645 34.3785 28.1264 33.7501 28.3629 33.1791C28.5994 32.6081 28.9999 32.12 29.5138 31.7767C30.0277 31.4333 30.6319 31.25 31.25 31.25C32.0788 31.25 32.8737 31.5792 33.4597 32.1653C34.0458 32.7513 34.375 33.5462 34.375 34.375ZM17.1875 18.75C17.8056 18.75 18.4098 18.9333 18.9237 19.2767C19.4376 19.62 19.8381 20.1081 20.0746 20.6791C20.3111 21.2501 20.373 21.8785 20.2525 22.4847C20.1319 23.0908 19.8342 23.6477 19.3972 24.0847C18.9602 24.5217 18.4033 24.8194 17.7972 24.94C17.191 25.0605 16.5626 24.9986 15.9916 24.7621C15.4206 24.5256 14.9325 24.1251 14.5892 23.6112C14.2458 23.0973 14.0625 22.4931 14.0625 21.875C14.0625 21.0462 14.3917 20.2513 14.9778 19.6653C15.5638 19.0792 16.3587 18.75 17.1875 18.75Z" fill="#F98731"/>
</svg>
