<svg width="50" height="50" viewBox="0 0 50 50" fill="none" xmlns="http://www.w3.org/2000/svg">
<path d="M42.1875 37.5C41.4915 37.5032 40.8052 37.6634 40.1797 37.9687L33.4609 31.25H28.125V34.375H32.1656L37.9703 40.1797C37.6647 40.8051 37.504 41.4914 37.5 42.1875C37.5 43.1146 37.7749 44.0209 38.29 44.7917C38.8051 45.5626 39.5371 46.1634 40.3937 46.5182C41.2502 46.873 42.1927 46.9658 43.102 46.7849C44.0113 46.6041 44.8465 46.1576 45.5021 45.5021C46.1576 44.8465 46.6041 44.0113 46.7849 43.102C46.9658 42.1927 46.873 41.2502 46.5182 40.3937C46.1634 39.5371 45.5626 38.8051 44.7917 38.29C44.0209 37.7749 43.1146 37.5 42.1875 37.5ZM42.1875 43.75C41.8785 43.75 41.5764 43.6584 41.3194 43.4867C41.0625 43.315 40.8622 43.071 40.7439 42.7854C40.6257 42.4999 40.5947 42.1858 40.655 41.8827C40.7153 41.5796 40.8641 41.3012 41.0826 41.0826C41.3012 40.8641 41.5796 40.7153 41.8827 40.655C42.1858 40.5947 42.4999 40.6257 42.7854 40.7439C43.071 40.8622 43.315 41.0625 43.4867 41.3194C43.6584 41.5764 43.75 41.8785 43.75 42.1875C43.75 42.6019 43.5854 42.9993 43.2924 43.2924C42.9993 43.5854 42.6019 43.75 42.1875 43.75Z" fill="#F98731"/>
<path d="M42.1875 20.3125C41.2212 20.3154 40.2795 20.6173 39.4916 21.1768C38.7038 21.7364 38.1085 22.5261 37.7875 23.4375H28.125V26.5625H37.7875C38.0754 27.3706 38.5798 28.084 39.2457 28.6248C39.9116 29.1656 40.7133 29.5129 41.5632 29.6289C42.4132 29.7449 43.2786 29.625 44.0651 29.2824C44.8515 28.9397 45.5286 28.3875 46.0224 27.6861C46.5162 26.9846 46.8077 26.161 46.8651 25.3051C46.9224 24.4492 46.7434 23.594 46.3476 22.8329C45.9518 22.0719 45.3544 21.4343 44.6207 20.9898C43.8871 20.5453 43.0453 20.311 42.1875 20.3125ZM42.1875 26.5625C41.8785 26.5625 41.5764 26.4709 41.3194 26.2992C41.0625 26.1275 40.8622 25.8835 40.7439 25.5979C40.6257 25.3124 40.5947 24.9983 40.655 24.6952C40.7153 24.3921 40.8641 24.1137 41.0826 23.8952C41.3012 23.6766 41.5796 23.5278 41.8827 23.4675C42.1858 23.4072 42.4999 23.4382 42.7854 23.5564C43.071 23.6747 43.315 23.875 43.4867 24.1319C43.6584 24.3889 43.75 24.691 43.75 25C43.75 25.4144 43.5854 25.8118 43.2924 26.1049C42.9993 26.3979 42.6019 26.5625 42.1875 26.5625Z" fill="#F98731"/>
<path d="M42.1875 3.125C40.9447 3.12624 39.7531 3.6205 38.8743 4.49931C37.9955 5.37812 37.5012 6.56968 37.5 7.8125C37.5053 8.56103 37.6919 9.29712 38.0438 9.95782L32.1813 15.625H28.125V18.75H33.4437L40.3188 12.1063C40.9574 12.3847 41.6501 12.5173 42.3464 12.4943C43.0428 12.4713 43.7252 12.2933 44.3441 11.9733C44.963 11.6533 45.5027 11.1993 45.924 10.6444C46.3453 10.0895 46.6375 9.44762 46.7795 8.76551C46.9214 8.0834 46.9094 7.37822 46.7445 6.70132C46.5795 6.02441 46.2656 5.39281 45.8258 4.8525C45.3859 4.3122 44.8311 3.87677 44.2017 3.57793C43.5723 3.2791 42.8842 3.12436 42.1875 3.125ZM42.1875 9.375C41.8785 9.375 41.5764 9.28336 41.3194 9.11167C41.0625 8.93998 40.8622 8.69595 40.7439 8.41044C40.6257 8.12494 40.5947 7.81077 40.655 7.50767C40.7153 7.20458 40.8641 6.92617 41.0826 6.70765C41.3012 6.48913 41.5796 6.34031 41.8827 6.28002C42.1858 6.21974 42.4999 6.25068 42.7854 6.36894C43.071 6.4872 43.315 6.68747 43.4867 6.94442C43.6584 7.20138 43.75 7.50347 43.75 7.8125C43.75 8.2269 43.5854 8.62433 43.2924 8.91736C42.9993 9.21038 42.6019 9.375 42.1875 9.375Z" fill="#F98731"/>
<path d="M28.125 9.375H31.25V6.25H28.125C27.2346 6.25297 26.3552 6.44733 25.5464 6.8199C24.7377 7.19246 24.0184 7.73454 23.4375 8.40937C22.8566 7.73454 22.1374 7.19246 21.3286 6.8199C20.5198 6.44733 19.6404 6.25297 18.75 6.25H17.1875C13.4592 6.25414 9.88471 7.73704 7.24838 10.3734C4.61204 13.0097 3.12914 16.5842 3.125 20.3125V29.6875C3.12914 33.4158 4.61204 36.9903 7.24838 39.6266C9.88471 42.263 13.4592 43.7459 17.1875 43.75H18.75C19.6404 43.747 20.5198 43.5527 21.3286 43.1801C22.1374 42.8075 22.8566 42.2655 23.4375 41.5906C24.0184 42.2655 24.7377 42.8075 25.5464 43.1801C26.3552 43.5527 27.2346 43.747 28.125 43.75H31.25V40.625H28.125C27.2965 40.6242 26.5021 40.2947 25.9162 39.7088C25.3303 39.1229 25.0008 38.3285 25 37.5V12.5C25.0008 11.6715 25.3303 10.8771 25.9162 10.2912C26.5021 9.70533 27.2965 9.37583 28.125 9.375ZM18.75 40.625H17.1875C14.5601 40.6203 12.022 39.6706 10.0368 37.9494C8.0517 36.2282 6.75195 33.8503 6.375 31.25H9.375V28.125H6.25V21.875H10.9375C12.1803 21.8738 13.3719 21.3795 14.2507 20.5007C15.1295 19.6219 15.6238 18.4303 15.625 17.1875V14.0625H12.5V17.1875C12.5 17.6019 12.3354 17.9993 12.0424 18.2924C11.7493 18.5854 11.3519 18.75 10.9375 18.75H6.375C6.75195 16.1497 8.0517 13.7718 10.0368 12.0506C12.022 10.3294 14.5601 9.3797 17.1875 9.375H18.75C19.5785 9.37583 20.3729 9.70533 20.9588 10.2912C21.5447 10.8771 21.8742 11.6715 21.875 12.5V18.75H18.75V21.875H21.875V28.125H18.75C17.5072 28.1262 16.3156 28.6205 15.4368 29.4993C14.558 30.3781 14.0637 31.5697 14.0625 32.8125V35.9375H17.1875V32.8125C17.1875 32.3981 17.3521 32.0007 17.6451 31.7076C17.9382 31.4146 18.3356 31.25 18.75 31.25H21.875V37.5C21.8742 38.3285 21.5447 39.1229 20.9588 39.7088C20.3729 40.2947 19.5785 40.6242 18.75 40.625Z" fill="#F98731"/>
</svg>
