<svg width="50" height="50" viewBox="0 0 50 50" fill="none" xmlns="http://www.w3.org/2000/svg">
<path fill-rule="evenodd" clip-rule="evenodd" d="M42.6468 38.3616C41.888 38.3616 41.1821 38.5646 40.5586 38.8969L30.9733 29.2763C31.5821 28.4234 32.0144 27.444 32.2144 26.3763H35.5468C35.8511 27.2344 36.415 27.9764 37.1603 28.4992C37.9056 29.0221 38.7952 29.2999 39.7056 29.294C42.1438 29.294 44.1174 27.3763 44.1174 25.0057C44.1174 22.6351 42.1438 20.7175 39.7056 20.7175C38.7759 20.7118 37.8684 21.002 37.1145 21.546C36.3605 22.0901 35.7991 22.8598 35.5115 23.744H32.2203C32.047 22.7401 31.6642 21.7841 31.0968 20.9381L40.7733 11.2263C41.3438 11.4881 41.9733 11.6469 42.6468 11.6469C45.085 11.6469 47.0586 9.72926 47.0586 7.35867C47.0586 4.98808 45.085 3.07043 42.6468 3.07043C40.2115 3.07043 38.2409 4.98808 38.2409 7.35867C38.2409 8.12632 38.4615 8.83808 38.8262 9.46161L29.2497 19.0763C28.3756 18.4554 27.3754 18.0346 26.3203 17.844V14.3704C28.1056 13.8234 29.4115 12.2204 29.4115 10.2998C29.4115 7.92926 27.438 6.01161 24.9997 6.01161C22.5644 6.01161 20.5938 7.92926 20.5938 10.2998C20.5938 12.2263 21.9027 13.8381 23.7056 14.3793V17.841C22.635 18.0293 21.6468 18.444 20.7909 19.041L11.2027 9.42043C11.5497 8.80573 11.7644 8.11161 11.7644 7.36161C11.7644 4.99102 9.79091 3.07338 7.35267 3.07338C4.91738 3.07338 2.94679 4.99102 2.94679 7.36161C2.94679 9.7322 4.91738 11.6498 7.35267 11.6498C8.04091 11.6498 8.69091 11.4822 9.27032 11.2087L18.9321 20.9057C18.3556 21.744 17.9615 22.7087 17.7762 23.7498H14.488C14.2002 22.8652 13.6383 22.0951 12.8838 21.551C12.1293 21.0069 11.2211 20.7171 10.2909 20.7234C7.85561 20.7234 5.88502 22.641 5.88502 25.0116C5.88502 27.3822 7.85561 29.2998 10.2909 29.2998C12.2321 29.2998 13.8644 28.0763 14.4497 26.3822H17.7821C17.9821 27.4675 18.4321 28.4616 19.0586 29.3234L9.48797 38.9293C8.83304 38.5678 8.09779 38.3766 7.34973 38.3734C4.91444 38.3734 2.94385 40.291 2.94385 42.6616C2.94385 45.0322 4.91444 46.9498 7.34973 46.9498C9.78797 46.9498 11.7615 45.0322 11.7615 42.6616C11.7615 41.9969 11.5938 41.3763 11.3203 40.8204L20.9527 31.1469C21.7674 31.6881 22.6997 32.0557 23.7027 32.2322V35.641C21.9027 36.1822 20.5909 37.791 20.5909 39.7204C20.5909 42.091 22.5615 44.0087 24.9968 44.0087C27.435 44.0087 29.4086 42.091 29.4086 39.7204C29.4086 37.8028 28.1056 36.1969 26.3174 35.6498V32.2293C27.3291 32.0469 28.2674 31.6704 29.088 31.1204L38.7027 40.7704C38.3996 41.3549 38.2403 42.0032 38.238 42.6616C38.238 45.0322 40.2085 46.9498 42.6438 46.9498C45.0821 46.9498 47.0556 45.0322 47.0556 42.6616C47.0556 40.291 45.085 38.3616 42.6468 38.3616Z" fill="#F98731"/>
</svg>
